<svg xmlns="http://www.w3.org/2000/svg" width="180" height="60"><style type="text/css"><![CDATA[
	.st0{opacity:0.4;fill:none;stroke:#69B3E3;stroke-width:2;}
	.st1{fill:#FFFFFF;}
	.st2{fill:#69B3E3;}
]]></style><path class="st1" d="M27.739 34.153c-.309-1.011-.477-2.08-.477-3.192 0-6.055 4.911-10.965 10.966-10.965 4.365 0 8.122 2.557 9.887 6.248 1.69-1.767 4.065-2.873 6.703-2.873 5.124 0 9.277 4.154 9.277 9.278 0 .503-.051.993-.127 1.475h1.884c4.464 0 8.083 3.62 8.083 8.085s-3.619 8.084-8.083 8.084h-37.535c-4.464 0-8.083-3.619-8.083-8.084-.001-4.27 3.31-7.758 7.505-8.056z"/><path class="st1" d="M150.055 25.909c.146-.73.226-1.485.226-2.259 0-6.252-5.069-11.322-11.322-11.322-2.295 0-4.426.687-6.208 1.859-1.874-7.341-8.512-12.776-16.436-12.776-7.758 0-14.286 5.205-16.316 12.309-6.967 1.041-12.318 7-12.387 14.239-2.939 2.109-4.863 5.548-4.863 9.441 0 6.422 5.207 11.627 11.627 11.627h53.984c6.422 0 11.626-5.205 11.626-11.627-.001-5.845-4.316-10.669-9.931-11.491z"/><path class="st0" d="M33.831 30.895c-.309-1.011-.477-2.082-.477-3.192 0-6.056 4.911-10.966 10.966-10.966 4.365 0 8.121 2.557 9.887 6.247 1.689-1.767 4.064-2.872 6.702-2.872 5.124 0 9.277 4.153 9.277 9.277 0 .503-.051.993-.127 1.476h1.885c4.464 0 8.083 3.619 8.083 8.084s-3.619 8.084-8.083 8.084h-37.535c-4.464 0-8.083-3.619-8.083-8.084-.001-4.269 3.31-7.757 7.505-8.054z"/><path class="st0" d="M149.599 30.253c.146-.73.226-1.486.226-2.26 0-6.252-5.069-11.322-11.322-11.322-2.295 0-4.425.687-6.208 1.859-1.874-7.342-8.511-12.776-16.436-12.776-7.757 0-14.286 5.205-16.316 12.308-6.966 1.041-12.318 7-12.386 14.239-2.939 2.109-4.863 5.548-4.863 9.441 0 6.422 5.207 11.627 11.627 11.627h53.984c6.421 0 11.626-5.205 11.626-11.627-.001-5.844-4.317-10.667-9.932-11.489z"/><path class="st2" d="M121.002 30.746c.52-1.704.803-3.51.803-5.383 0-10.214-8.282-18.493-18.492-18.493-7.363 0-13.699 4.311-16.676 10.535-2.85-2.979-6.855-4.844-11.304-4.844-8.641 0-15.646 7.005-15.646 15.647 0 .85.086 1.675.216 2.488h-3.179c-7.531 0-13.634 6.104-13.634 13.635s6.103 13.634 13.634 13.634h63.303c7.53 0 13.635-6.104 13.635-13.634-.002-7.2-5.588-13.081-12.66-13.585z"/><path class="st1" d="M77.583 33.223h-5.335v4.794h5.222v2.139h-5.222v6.708h-3.174v-15.759h8.509v2.118z"/><path class="st1" d="M83.57 46.863h-3.174v-15.758h3.174v15.758z"/><path class="st1" d="M95.838 33.223h-5.334v4.794h5.222v2.139h-5.222v6.708h-3.174v-15.759h8.509v2.118z"/><path class="st1" d="M113.553 38.827c0 2.371-.713 4.337-2.138 5.897-1.456 1.605-3.362 2.408-5.718 2.408-2.341 0-4.247-.795-5.718-2.385-1.426-1.547-2.138-3.504-2.138-5.876 0-2.356.75-4.284 2.25-5.785 1.501-1.501 3.422-2.251 5.764-2.251 2.19 0 4.021.762 5.492 2.285s2.206 3.427 2.206 5.707zm-3.399.202c0-1.875-.402-3.338-1.204-4.389-.804-1.051-1.91-1.576-3.32-1.576-1.472 0-2.604.646-3.399 1.936-.676 1.096-1.013 2.424-1.013 3.984 0 1.606.337 2.941 1.013 4.008.811 1.275 1.966 1.912 3.467 1.912 1.365 0 2.449-.528 3.253-1.586.801-1.058 1.203-2.488 1.203-4.289z"/></svg>