<?xml version="1.0" encoding="utf-8"?>
<!-- Generator: Adobe Illustrator 16.0.0, SVG Export Plug-In . SVG Version: 6.00 Build 0)  -->
<!DOCTYPE svg PUBLIC "-//W3C//DTD SVG 1.1//EN" "http://www.w3.org/Graphics/SVG/1.1/DTD/svg11.dtd">
<svg version="1.1" id="Layer_1" xmlns="http://www.w3.org/2000/svg" xmlns:xlink="http://www.w3.org/1999/xlink" x="0px" y="0px"
	 width="20px" height="20px" viewBox="0 0 20 20" style="enable-background:new 0 0 20 20;" xml:space="preserve">
<style type="text/css">
<![CDATA[
	.st0{fill:#666666;}
]]>
</style>
<g>
	<path class="st0" d="M17.773,2.435c0.843,0.843-1.495,4.549-1.892,4.945c-0.395,0.395-1.397,0.031-2.241-0.812
		c-0.844-0.844-1.206-1.848-0.812-2.243C13.226,3.929,16.931,1.592,17.773,2.435z"/>
	<path class="st0" d="M5.946,3.327c-1.287-0.73-3.12-1.543-3.702-0.96c-0.591,0.59,0.252,2.464,0.99,3.754
		C3.891,4.979,4.826,4.017,5.946,3.327z"/>
	<path class="st0" d="M16.487,7.088c0.119,0.402,0.096,0.734-0.096,0.926c-0.449,0.45-1.662-0.029-2.756-1.07
		c-0.076-0.068-0.152-0.14-0.226-0.214c-0.396-0.396-0.703-0.817-0.9-1.205c-0.384-0.688-0.479-1.294-0.19-1.583
		c0.157-0.158,0.412-0.201,0.72-0.146c0.199-0.127,0.437-0.269,0.697-0.414c-1.059-0.551-2.259-0.862-3.534-0.862
		c-4.229,0-7.656,3.427-7.656,7.655c0,4.228,3.428,7.655,7.656,7.655s7.657-3.428,7.657-7.655c0-1.365-0.359-2.646-0.985-3.756
		C16.739,6.668,16.607,6.895,16.487,7.088z"/>
</g>
<g>
</g>
<g>
</g>
<g>
</g>
<g>
</g>
<g>
</g>
<g>
</g>
</svg>
