<?xml version="1.0" encoding="utf-8"?>
<!-- Generator: Adobe Illustrator 16.0.0, SVG Export Plug-In . SVG Version: 6.00 Build 0)  -->
<!DOCTYPE svg PUBLIC "-//W3C//DTD SVG 1.1//EN" "http://www.w3.org/Graphics/SVG/1.1/DTD/svg11.dtd">
<svg version="1.1" id="Layer_1" xmlns="http://www.w3.org/2000/svg" xmlns:xlink="http://www.w3.org/1999/xlink" x="0px" y="0px"
	 width="20px" height="20px" viewBox="0 0 20 20" style="enable-background:new 0 0 20 20;" xml:space="preserve">
<style type="text/css">
<![CDATA[
	.st0{fill-rule:evenodd;clip-rule:evenodd;fill:#1D1D1D;}
	.st1{fill-rule:evenodd;clip-rule:evenodd;fill:#FFFFFF;}
	.st2{fill-rule:evenodd;clip-rule:evenodd;fill:#CCCCCC;}
]]>
</style>
<polygon class="st1" points="7.495,5.333 7.464,3.226 8.718,2.491 10.579,1.238 11.344,1.207 12.141,2.062 12.569,4.906 
	11.988,5.945 9.573,5.884 7.495,5.333 "/>
<polygon class="st1" points="5.018,11.355 5.66,9.552 6.913,8.055 7.555,6.77 7.831,6.344 12.415,5.64 13.332,7.078 15.899,13.219 
	15.013,14.318 12.688,18.204 12.141,18.326 7.891,18.446 4.925,15.146 4.437,12.396 5.018,11.355 "/>
<path class="st2" d="M10.887,6.68c0,0-0.153-0.031,0.274-0.124c0.429-0.091,0.432-0.181,0.551-0.305
	c0.121-0.122,0.183-0.398,0.183-0.703s0.153-1.192,0.122-1.435c-0.028-0.246-0.55-1.161-0.763-1.285
	C11.04,2.706,8.655,2.491,8.655,2.491L7.922,3.073L7.371,3.59l0.124,1.652c0,0-0.155,0.52-0.124,0.731
	c0.031,0.215,0.338,0.46,0.46,0.582C7.952,6.68,8.41,7.171,8.562,7.321c0.155,0.152,0.187,0.305,0.551,0.184
	C9.48,7.383,9.695,7.383,9.972,7.168C10.246,6.954,10.887,6.68,10.887,6.68L10.887,6.68z"/>
<path class="st1" d="M9.48,4.082c0.093-0.246,0.214-0.704,0.426-0.856c0.215-0.152,0.675-0.279,0.949-0.246
	c0.277,0.031,0.793,0.305,0.918,0.52c0.12,0.215,0.12,1.07,0.12,1.07l-0.062,0.703l-0.427-0.031l-0.917-0.367h-0.152
	c0,0-0.153,0.06-0.613-0.183C9.266,4.446,9.387,4.327,9.48,4.082L9.48,4.082z"/>
<path class="st1" d="M8.503,4.753C8.517,4.739,8.546,4.72,8.584,4.699C8.77,4.597,9.175,4.446,9.175,4.446s0.396-1.006,0.06-1.404
	C8.901,2.644,8.167,2.706,8.167,2.706S7.374,3.164,7.402,3.347c0.031,0.184,0.062,0.825,0.093,0.915
	c0.029,0.093,0.153,1.071,0.153,1.071l0.274-0.122l0.397-0.306C8.319,4.906,8.413,4.846,8.503,4.753L8.503,4.753z"/>
<path class="st2" d="M14.341,13.984c0,0,0.192,0.015,0.443,0.034c0.064,0.005,0.128,0.006,0.193,0.01
	c0.328,0.011,0.617,0.062,0.925,0.099c0.202,0.024,0.539,0.153,0.562,0.409c0.033,0.377-0.077,0.79,0.242,0.946
	c0.327,0.222,1.056,0.734,1.056,0.734l0.216,0.396l-0.643,0.581l-3.147,1.895L12.754,18.6v-1.161l0.059-1.559l-0.152-1.406
	l0.243-0.552l0.612-0.183L14.341,13.984L14.341,13.984z"/>
<path class="st2" d="M5.235,13.298C5.204,13.27,4.646,13.435,4.61,13.44c-0.259,0.039-0.588,0.218-0.588,0.502
	c0,0.145-0.012,0.295-0.079,0.427c-0.052,0.103-0.171,0.257-0.168,0.29c-0.041,0.112-0.115,0.271-0.217,0.336
	c-0.119,0.013-0.648,0.061-0.648,0.061h-0.46l-0.274,0.333l0.215,0.889l-0.062,0.701l-0.212,0.796l0.518,0.274l3.914,1.039
	l0.886-0.273l0.458-1.133l-0.093-0.427l-0.427-0.855C7.371,16.399,5.512,13.699,5.235,13.298L5.235,13.298z"/>
<path class="st0" d="M13.349,13.908c-0.253-0.016-0.517,0.079-0.534,0.723c-0.016,0.644,0,0.582,0.11,1.161
	c0.109,0.582,0.126,0.752,0.031,1.396c-0.093,0.643-0.171,0.989,0.253,1.383c0.422,0.394,1.065,0.281,1.396,0.031
	c0.33-0.251,0.957-0.832,1.521-1.021c0.567-0.188,1.163-0.329,1.478-0.645c0.312-0.314,0.234-0.533-0.095-0.704
	c-0.33-0.175-0.644-0.096-0.894-0.378c-0.253-0.283-0.377-0.909-0.284-1.241c0.096-0.329,0.205-0.188,0.205,0.048
	s0.015,0.455,0.25,0.752c0.236,0.299,0.455,0.441,0.832,0.676c0.376,0.236,0.612,0.612,0.142,0.943
	c-0.471,0.329-0.737,0.518-1.131,0.676c-0.391,0.157-1.034,0.532-1.428,0.925c-0.394,0.394-0.613,0.738-1.382,0.738
	s-1.121-0.186-1.35-0.644c-0.157-0.314-0.236-0.268-0.596-0.284c-0.362-0.015-1.571-0.03-2.513-0.015
	c-0.941,0.015-1.256,0.173-1.68,0.519c-0.422,0.345-0.58,0.611-1.38,0.345c-0.801-0.266-1.225-0.564-2.417-0.801
	c-1.194-0.236-0.551-0.126-1.273-0.283c-0.723-0.155-0.674-0.5-0.579-0.784c0.093-0.282,0.329-0.723,0.124-1.302
	c-0.203-0.582-0.124-1.177,0.424-1.177c0.55,0,1.068,0.109,1.287-0.614c0.219-0.721,0.283-0.157,0.219,0.031
	c-0.062,0.188-0.093,0.706-0.58,0.785c-0.486,0.078-0.596-0.031-0.896-0.031c-0.298,0-0.422,0.205-0.267,0.55
	c0.158,0.347,0.332,0.707,0.3,1.004c-0.033,0.298-0.064,0.408-0.283,0.691c-0.22,0.281-0.189,0.425,0.205,0.518
	c0.391,0.095,1.099,0.284,1.757,0.44c0.66,0.155,0.708,0.155,1.852,0.456c1.146,0.298,1.461-0.236,1.554-0.88
	c0.095-0.644-0.346-1.256-0.753-1.868c-0.407-0.614-0.846-1.318-1.38-1.962s-0.849-0.691-1.116-0.551
	c-0.267,0.143-0.314,0.112-0.329-0.251c-0.017-0.359-0.047-0.596,0.25-1.129c0.298-0.535,0.565-1.115,0.88-2.009
	C5.595,9.232,5.876,9.059,6.41,8.289c0.534-0.768,0.298-0.47,0.675-0.987c0.376-0.52,0.267-0.424,0.236-1.242
	C7.29,5.245,7.259,4.772,7.228,3.705l0,0C7.164,1.571,7.996,0.63,9.723,0.599c1.727-0.034,2.809,0.877,3.031,2.071
	c0.219,1.192,0.092,2.762,0.533,3.578c0.438,0.817,0.72,1.444,1.475,2.386c0.754,0.941,1.224,1.899,1.443,3.063
	c0.222,1.16,0.346,1.709-0.22,2.307c-0.565,0.596-1.568,1.568-2.322,0.47c-0.379-0.552-0.419-1.234,0.22-1.381
	c0.408-0.095,0.701-0.063,1.004,0.094c0.305,0.157,0.377,0.083,0.012-0.188c-0.367-0.271-0.441-0.021-0.314-0.46
	c0.126-0.438,0.291-1.228-0.053-2.095c-0.159-0.4-0.701-1.497-1.208-1.766c-0.046-0.027-0.18-0.081-0.088,0.031
	c0.135,0.169,0.866,1.247,1.074,1.888c0.222,0.688,0.253,1.346,0.139,1.762c-0.114,0.421-0.315,0.587-0.556,0.587
	c-0.241,0-0.46,0.114-0.46-0.438c0-0.555,0.057-1.391-0.241-2.1c-0.298-0.705-0.659-1.191-0.738-1.489
	c-0.077-0.298-0.251-1.099-0.61-1.555c-0.362-0.455-0.519-0.753-0.331-1.272c0.188-0.517,0.047-0.658-0.329-0.768
	c-0.377-0.11-0.88-0.267-1.004-0.52c-0.126-0.25-0.047-0.753,0.233-0.877c0.284-0.126,0.754,0.045,0.771,0.408
	c0.017,0.36-0.157,0.548-0.109,0.627s0.298,0.205,0.425,0.064c0.123-0.143,0.156-0.582,0.03-0.989
	c-0.127-0.408-0.188-0.691-0.644-0.785c-0.456-0.095-0.661-0.064-0.88,0.22C9.786,3.752,9.69,4.208,9.754,4.539
	C9.817,4.868,9.69,4.68,9.471,4.663c-0.219-0.014-0.157-0.03-0.376-0.014C8.875,4.663,8.954,4.522,8.937,4.287
	C8.923,4.05,8.892,3.564,8.56,3.375C8.231,3.188,7.667,3.407,7.681,4.193c0.016,0.784,0.283,1.161,0.44,0.877
	C8.279,4.789,8.201,4.93,8.043,4.804C7.886,4.68,7.776,4.16,7.948,4.005C8.122,3.848,8.325,3.848,8.436,3.94
	c0.11,0.096,0.282,0.41,0.25,0.613c-0.031,0.205-0.047,0.219-0.25,0.362c-0.205,0.141-0.283,0.267-0.52,0.422
	c-0.235,0.158-0.329,0.52-0.14,0.613c0.188,0.095,0.205,0.079,0.359,0.315C8.293,6.5,8.56,6.61,9.221,6.5
	c0.658-0.109,0.929-0.267,1.428-0.44c0.362-0.125,0.236-0.11,0.362-0.25c0.125-0.141,0.329,0.062,0.141,0.188
	c-0.188,0.126-0.613,0.25-0.927,0.36C9.912,6.47,9.549,6.782,8.892,6.751C8.231,6.72,8.687,6.734,8.481,6.72
	C8.279,6.704,8.184,6.734,8.403,6.892c0.222,0.157,0.205,0.205,0.394,0.267c0.188,0.064,0.438,0.064,0.739-0.045
	c0.298-0.112,1.051-0.441,1.287-0.599c0.234-0.157,0.423,0.048,0.188,0.205c-0.236,0.158-0.3,0.11-0.52,0.25
	C10.271,7.114,9.864,7.347,9.597,7.6C9.33,7.85,9.269,7.867,8.937,7.881C8.608,7.897,8.403,7.552,8.262,7.395
	c-0.141-0.157-0.126-0.25-0.298-0.438C7.792,6.768,7.776,6.813,7.745,7.018C7.714,7.223,7.478,7.74,7.273,8.086
	C7.07,8.431,7.054,8.855,7.085,9.154c0.031,0.298-0.047,0.329-0.281,0.674c-0.236,0.346-0.629,1.366-0.691,1.695
	c-0.062,0.328-0.141,1.006-0.109,1.396c0.031,0.394-0.079,0.473-0.363,0.205c-0.281-0.267-0.376-0.563-0.359-0.958
	c0.014-0.337,0.06-0.571,0.103-0.695c0.042-0.124,0.002-0.21-0.088-0.058c-0.193,0.334-0.203,0.911-0.155,1.116
	c0.045,0.202,0.062,0.563,0.58,1.051c0.52,0.486,1.273,1.161,1.899,1.615c0.629,0.455,0.849,1.021-0.079,1.428
	c0.582,0.787,0.896,1.194,0.644,1.712c0.52-0.299,0.319-1.002,0.069-1.189c-0.252-0.188-0.1-0.334,0.12-0.191
	c0.219,0.142,0.298,0.423,1.163,0.408c0.863-0.017,1.792-0.103,2.312-0.858c0.517-0.753,0.616-0.119,0.49,0.322
	c-0.124,0.438-0.434,1.43,0.053,1.338c0.062-0.582,0.205-1.085,0.205-1.711c0-0.63,0.062-0.934,0.015-1.844
	c-0.048-0.878,0.331-0.937,0.722-0.937 M8.939,4.861C8.823,4.837,8.682,4.846,8.604,4.939C8.572,4.97,8.586,5.059,8.641,5.083
	c0.072,0.031,0.12-0.041,0.134-0.095c0.007-0.024,0.017-0.055,0.041-0.062c0.031-0.017,0.076-0.002,0.11-0.017
	C8.963,4.894,8.949,4.861,8.939,4.861L8.939,4.861z M9.495,4.882C9.542,4.954,9.628,4.954,9.7,4.984
	C9.738,5.001,9.817,5.025,9.84,4.97c0.055-0.174-0.181-0.119-0.291-0.119C9.525,4.852,9.471,4.844,9.495,4.882L9.495,4.882z
	 M10.639,4.122c0.107,0.005,0.253,0.196,0.267,0.417c0.002,0.033,0.093,0.031,0.113-0.002c0.049-0.088,0.015-0.186-0.01-0.291
	c-0.02-0.086-0.122-0.174-0.208-0.212c-0.057-0.029-0.117-0.038-0.193-0.029C10.589,4.015,10.522,4.115,10.639,4.122L10.639,4.122z
	 M8.301,4.067C8.203,4.074,8.238,4.15,8.244,4.212C8.379,4.289,8.391,4.46,8.42,4.597c0.002,0.052,0.081,0.028,0.088,0.012
	c0.059-0.11-0.015-0.234-0.041-0.363C8.443,4.179,8.398,4.103,8.336,4.058C8.327,4.048,8.31,4.067,8.301,4.067L8.301,4.067z"/>
<g>
</g>
<g>
</g>
<g>
</g>
<g>
</g>
<g>
</g>
<g>
</g>
</svg>
