<?xml version="1.0" encoding="utf-8"?>
<!-- Generator: Adobe Illustrator 16.0.0, SVG Export Plug-In . SVG Version: 6.00 Build 0)  -->
<!DOCTYPE svg PUBLIC "-//W3C//DTD SVG 1.1//EN" "http://www.w3.org/Graphics/SVG/1.1/DTD/svg11.dtd">
<svg version="1.1" id="Layer_1" xmlns="http://www.w3.org/2000/svg" xmlns:xlink="http://www.w3.org/1999/xlink" x="0px" y="0px"
	 width="20px" height="20px" viewBox="0 0 20 20" style="enable-background:new 0 0 20 20;" xml:space="preserve">
<style type="text/css">
<![CDATA[
	.st0{fill:#737373;}
]]>
</style>
<g>
	<path class="st0" d="M5.329,3.126C4.253,3.912,1.994,5.803,1.915,6.129c-0.103,0.555,0.859,4.467,3.021,7.223
		c1.385-0.594,2.706-1.436,4.253-2.709C6.688,8.007,5.391,5.48,5.329,3.126z"/>
	<path class="st0" d="M6.208,2.846C6.185,3.312,6.22,3.494,6.318,3.951c0.243-0.173,0.817-0.555,1.047-0.707
		C6.748,2.909,6.358,2.854,6.208,2.846z"/>
	<path class="st0" d="M6.678,4.925c0.594,1.384,1.436,2.706,2.71,4.253c2.633-2.5,5.162-3.798,7.515-3.86
		c-0.786-1.076-2.677-3.335-3.003-3.413C13.88,1.9,13.852,1.898,13.817,1.898C13.043,1.898,9.332,2.843,6.678,4.925z"/>
	<path class="st0" d="M16.077,6.307c0.175,0.243,0.556,0.817,0.708,1.046c0.334-0.616,0.391-1.013,0.397-1.157
		C16.719,6.173,16.529,6.21,16.077,6.307z"/>
	<path class="st0" d="M18.085,13.871c0.103-0.555-0.858-4.467-3.021-7.223c-1.385,0.594-2.705,1.436-4.253,2.709
		c2.501,2.636,3.798,5.162,3.86,7.516C15.747,16.088,18.007,14.198,18.085,13.871"/>
	<path class="st0" d="M12.635,16.756c0.617,0.334,1.006,0.391,1.157,0.398c0.024-0.467-0.012-0.648-0.11-1.106
		C13.439,16.221,12.865,16.604,12.635,16.756z"/>
	<path class="st0" d="M3.097,14.682c0.786,1.076,2.677,3.336,3.002,3.414c0.021,0.004,0.049,0.006,0.083,0.006
		c0.774,0,4.485-0.943,7.139-3.025c-0.594-1.385-1.436-2.707-2.709-4.254C7.978,13.322,5.451,14.619,3.097,14.682z"/>
	<path class="st0" d="M2.817,13.803c0.464,0.023,0.654-0.013,1.105-0.109c-0.173-0.243-0.554-0.816-0.708-1.048
		C2.881,13.264,2.826,13.659,2.817,13.803z"/>
</g>
</svg>
