<?xml version="1.0" encoding="utf-8"?>
<!-- Generator: Adobe Illustrator 16.0.0, SVG Export Plug-In . SVG Version: 6.00 Build 0)  -->
<!DOCTYPE svg PUBLIC "-//W3C//DTD SVG 1.1//EN" "http://www.w3.org/Graphics/SVG/1.1/DTD/svg11.dtd">
<svg version="1.1" id="Layer_1" xmlns="http://www.w3.org/2000/svg" xmlns:xlink="http://www.w3.org/1999/xlink" x="0px" y="0px"
	 width="20px" height="20px" viewBox="0 0 20 20" style="enable-background:new 0 0 20 20;" xml:space="preserve">
<style type="text/css">
<![CDATA[
	.st0{fill:#FFFFFF;stroke:#666766;stroke-width:0.75;stroke-miterlimit:10;}
	.st1{fill:#666766;stroke:#666766;stroke-width:0.5;stroke-miterlimit:10;}
	.st2{fill:#FFFFFF;}
]]>
</style>
<circle class="st0" cx="9.836" cy="9.479" r="7.073"/>
<circle class="st1" cx="9.836" cy="9.455" r="5.011"/>
<g>
	<path class="st2" d="M9.109,11.414l-0.023-0.305c-0.07-0.633,0.141-1.324,0.727-2.027c0.527-0.621,0.82-1.078,0.82-1.605
		c0-0.598-0.375-0.996-1.113-1.008c-0.422,0-0.891,0.141-1.184,0.363L8.055,6.094C8.441,5.812,9.109,5.625,9.73,5.625
		c1.348,0,1.957,0.832,1.957,1.723c0,0.797-0.445,1.371-1.008,2.039c-0.516,0.609-0.703,1.125-0.668,1.723l0.012,0.305H9.109z
		 M8.852,13.055c0-0.434,0.293-0.738,0.703-0.738s0.691,0.305,0.691,0.738c0,0.41-0.27,0.727-0.703,0.727
		C9.133,13.781,8.852,13.465,8.852,13.055z"/>
</g>
<g>
</g>
<g>
</g>
<g>
</g>
<g>
</g>
<g>
</g>
<g>
</g>
</svg>
