<svg xmlns="http://www.w3.org/2000/svg" width="20" height="20"><style type="text/css"><![CDATA[
	.st0{fill:#666666;}
]]></style><path class="st0" d="M17.773 2.435c.843.843-1.495 4.549-1.892 4.945-.395.395-1.397.031-2.241-.812-.844-.844-1.206-1.848-.812-2.243.398-.396 4.103-2.733 4.945-1.89z"/><path class="st0" d="M5.946 3.327c-1.287-.73-3.12-1.543-3.702-.96-.591.59.252 2.464.99 3.754.657-1.142 1.592-2.104 2.712-2.794z"/><path class="st0" d="M16.487 7.088c.119.402.096.734-.096.926-.449.45-1.662-.029-2.756-1.07l-.226-.214c-.396-.396-.703-.817-.9-1.205-.384-.688-.479-1.294-.19-1.583.157-.158.412-.201.72-.146.199-.127.437-.269.697-.414-1.059-.551-2.259-.862-3.534-.862-4.229 0-7.656 3.427-7.656 7.655s3.428 7.655 7.656 7.655 7.657-3.428 7.657-7.655c0-1.365-.359-2.646-.985-3.756-.135.249-.267.476-.387.669z"/></svg>