<svg xmlns="http://www.w3.org/2000/svg" width="20" height="20"><style type="text/css"><![CDATA[
	.st0{fill-rule:evenodd;clip-rule:evenodd;fill:#1D1D1D;}
	.st1{fill-rule:evenodd;clip-rule:evenodd;fill:#FFFFFF;}
	.st2{fill-rule:evenodd;clip-rule:evenodd;fill:#CCCCCC;}
]]></style><polygon class="st1" points="7.495,5.333 7.464,3.226 8.718,2.491 10.579,1.238 11.344,1.207 12.141,2.062 12.569,4.906 11.988,5.945 9.573,5.884 7.495,5.333"/><polygon class="st1" points="5.018,11.355 5.66,9.552 6.913,8.055 7.555,6.77 7.831,6.344 12.415,5.64 13.332,7.078 15.899,13.219 15.013,14.318 12.688,18.204 12.141,18.326 7.891,18.446 4.925,15.146 4.437,12.396 5.018,11.355"/><path class="st2" d="M10.887 6.68s-.153-.031.274-.124c.429-.091.432-.181.551-.305.121-.122.183-.398.183-.703s.153-1.192.122-1.435c-.028-.246-.55-1.161-.763-1.285-.214-.122-2.599-.337-2.599-.337l-.733.582-.551.517.124 1.652s-.155.52-.124.731c.031.215.338.46.46.582l.731.766c.155.152.187.305.551.184.367-.122.582-.122.859-.337.274-.214.915-.488.915-.488z"/><path class="st1" d="M9.48 4.082c.093-.246.214-.704.426-.856.215-.152.675-.279.949-.246.277.031.793.305.918.52.12.215.12 1.07.12 1.07l-.062.703-.427-.031-.917-.367h-.152s-.153.06-.613-.183c-.456-.246-.335-.365-.242-.61z"/><path class="st1" d="M8.503 4.753l.081-.054c.186-.102.591-.253.591-.253s.396-1.006.06-1.404c-.334-.398-1.068-.336-1.068-.336s-.793.458-.765.641c.031.184.062.825.093.915.029.093.153 1.071.153 1.071l.274-.122.397-.306.184-.152z"/><path class="st2" d="M14.341 13.984l.443.034.193.01c.328.011.617.062.925.099.202.024.539.153.562.409.033.377-.077.79.242.946.327.222 1.056.734 1.056.734l.216.396-.643.581-3.147 1.895-1.434-.488v-1.161l.059-1.559-.152-1.406.243-.552.612-.183.825.245z"/><path class="st2" d="M5.235 13.298c-.031-.028-.589.137-.625.142-.259.039-.588.218-.588.502 0 .145-.012.295-.079.427l-.168.29c-.041.112-.115.271-.217.336l-.648.061h-.46l-.274.333.215.889-.062.701-.212.796.518.274 3.914 1.039.886-.273.458-1.133-.093-.427-.427-.855-2.138-3.102z"/><path class="st0" d="M13.349 13.908c-.253-.016-.517.079-.534.723-.016.644 0 .582.11 1.161.109.582.126.752.031 1.396-.093.643-.171.989.253 1.383.422.394 1.065.281 1.396.031.33-.251.957-.832 1.521-1.021.567-.188 1.163-.329 1.478-.645.312-.314.234-.533-.095-.704-.33-.175-.644-.096-.894-.378-.253-.283-.377-.909-.284-1.241.096-.329.205-.188.205.048s.015.455.25.752c.236.299.455.441.832.676.376.236.612.612.142.943-.471.329-.737.518-1.131.676-.391.157-1.034.532-1.428.925-.394.394-.613.738-1.382.738s-1.121-.186-1.35-.644c-.157-.314-.236-.268-.596-.284-.362-.015-1.571-.03-2.513-.015-.941.015-1.256.173-1.68.519-.422.345-.58.611-1.38.345-.801-.266-1.225-.564-2.417-.801-1.194-.236-.551-.126-1.273-.283-.723-.155-.674-.5-.579-.784.093-.282.329-.723.124-1.302-.203-.582-.124-1.177.424-1.177.55 0 1.068.109 1.287-.614.219-.721.283-.157.219.031-.062.188-.093.706-.58.785-.486.078-.596-.031-.896-.031-.298 0-.422.205-.267.55.158.347.332.707.3 1.004-.033.298-.064.408-.283.691-.22.281-.189.425.205.518.391.095 1.099.284 1.757.44.66.155.708.155 1.852.456 1.146.298 1.461-.236 1.554-.88.095-.644-.346-1.256-.753-1.868-.407-.614-.846-1.318-1.38-1.962s-.849-.691-1.116-.551c-.267.143-.314.112-.329-.251-.017-.359-.047-.596.25-1.129.298-.535.565-1.115.88-2.009.316-.893.597-1.066 1.131-1.836l.675-.987c.376-.52.267-.424.236-1.242-.031-.815-.062-1.288-.093-2.355-.064-2.134.768-3.075 2.495-3.106 1.727-.034 2.809.877 3.031 2.071.219 1.192.092 2.762.533 3.578.438.817.72 1.444 1.475 2.386.754.941 1.224 1.899 1.443 3.063.222 1.16.346 1.709-.22 2.307-.565.596-1.568 1.568-2.322.47-.379-.552-.419-1.234.22-1.381.408-.095.701-.063 1.004.094.305.157.377.083.012-.188-.367-.271-.441-.021-.314-.46.126-.438.291-1.228-.053-2.095-.159-.4-.701-1.497-1.208-1.766-.046-.027-.18-.081-.088.031.135.169.866 1.247 1.074 1.888.222.688.253 1.346.139 1.762-.114.421-.315.587-.556.587-.241 0-.46.114-.46-.438 0-.555.057-1.391-.241-2.1-.298-.705-.659-1.191-.738-1.489-.077-.298-.251-1.099-.61-1.555-.362-.455-.519-.753-.331-1.272.188-.517.047-.658-.329-.768-.377-.11-.88-.267-1.004-.52-.126-.25-.047-.753.233-.877.284-.126.754.045.771.408.017.36-.157.548-.109.627s.298.205.425.064c.123-.143.156-.582.03-.989-.127-.408-.188-.691-.644-.785-.456-.095-.661-.064-.88.22-.22.28-.316.736-.252 1.067.063.329-.064.141-.283.124l-.376-.014c-.22.014-.141-.127-.158-.362-.014-.237-.045-.723-.377-.912-.329-.187-.893.032-.879.818.016.784.283 1.161.44.877.158-.281.08-.14-.078-.266-.157-.124-.267-.644-.095-.799.174-.157.377-.157.488-.065.11.096.282.41.25.613-.031.205-.047.219-.25.362l-.52.422c-.235.158-.329.52-.14.613.188.095.205.079.359.315.158.235.425.345 1.086.235.658-.109.929-.267 1.428-.44.362-.125.236-.11.362-.25.125-.141.329.062.141.188-.188.126-.613.25-.927.36-.313.112-.676.424-1.333.393l-.411-.031c-.202-.016-.297.014-.078.172.222.157.205.205.394.267.188.064.438.064.739-.045.298-.112 1.051-.441 1.287-.599.234-.157.423.048.188.205l-.52.25c-.22.144-.627.377-.894.63-.267.25-.328.267-.66.281-.329.016-.534-.329-.675-.486l-.298-.438c-.172-.189-.188-.144-.219.061s-.267.722-.472 1.068c-.203.345-.219.769-.188 1.068.031.298-.047.329-.281.674-.236.346-.629 1.366-.691 1.695-.062.328-.141 1.006-.109 1.396.031.394-.079.473-.363.205-.281-.267-.376-.563-.359-.958.014-.337.06-.571.103-.695.042-.124.002-.21-.088-.058-.193.334-.203.911-.155 1.116.045.202.062.563.58 1.051.52.486 1.273 1.161 1.899 1.615.629.455.849 1.021-.079 1.428.582.787.896 1.194.644 1.712.52-.299.319-1.002.069-1.189-.252-.188-.1-.334.12-.191.219.142.298.423 1.163.408.863-.017 1.792-.103 2.312-.858.517-.753.616-.119.49.322-.124.438-.434 1.43.053 1.338.062-.582.205-1.085.205-1.711 0-.63.062-.934.015-1.844-.048-.878.331-.937.722-.937m-4.396-8.812c-.116-.024-.257-.015-.335.078-.032.031-.018.12.037.144.072.031.12-.041.134-.095l.041-.062.11-.017.013-.048zm.556.021c.047.072.133.072.205.102.038.017.117.041.14-.014.055-.174-.181-.119-.291-.119l-.054.031zm1.144-.76c.107.005.253.196.267.417.002.033.093.031.113-.002.049-.088.015-.186-.01-.291-.02-.086-.122-.174-.208-.212-.057-.029-.117-.038-.193-.029-.019.01-.086.11.031.117zm-2.338-.055c-.098.007-.063.083-.057.145.135.077.147.248.176.385.002.052.081.028.088.012.059-.11-.015-.234-.041-.363-.024-.067-.069-.143-.131-.188l-.035.009z"/></svg>