<svg xmlns="http://www.w3.org/2000/svg" xmlns:xlink="http://www.w3.org/1999/xlink" width="48" height="48" version="1"><defs><linearGradient id="a"><stop offset="0" stop-color="#fff"/><stop offset=".282" stop-color="#c8ffc8"/><stop offset=".5" stop-color="#abffab"/><stop offset=".7" stop-color="#c8ffc8"/><stop offset="1" stop-color="#69ff69"/></linearGradient><linearGradient xlink:href="#a" gradientUnits="userSpaceOnUse" gradientTransform="matrix(.79 0 0 .67 15.239 -.171)" x1="47.988" y1="18.259" x2="14.05" y2="53.248"/><filter height="1" width="1" y="0" x="0" color-interpolation-filters="sRGB"><feColorMatrix type="saturate" values="0" result="result1"/><feFlood flood-color="#096f98" result="result2"/><feBlend in2="result1" mode="screen" result="result2"/><feComposite in2="SourceGraphic" operator="in" in="result2"/></filter></defs><path d="M22.721.841c-9.319.195-17.096 8.247-18.358 17.247-1.755 9.63 3.744 20.425 13.247 23.552 3.233 1.097 6.783 1.237 10.092.395l3.588 5.205c2.612-.016 5.225-.032 7.837-.047l-5.429-7.903c9.379-6.347 11.622-20.396 5.344-29.656-3.493-5.448-9.788-9.062-16.32-8.792zm.118 5.063c4.964-.215 8.122 4.721 9.326 8.955 1.745 6.194 1.258 13.316-2.386 18.752l-2.951-4.306-7.837.071c1.841 2.674 3.682 5.347 5.524 8.021-4.666.864-8.183-3.552-9.558-7.493-2.42-6.855-1.927-15.191 2.665-21.042 1.318-1.548 3.143-2.798 5.218-2.958z" color="#000" fill="#808080" fill-rule="evenodd" overflow="visible"/></svg>