<svg xmlns="http://www.w3.org/2000/svg" width="20" height="20"><style type="text/css"><![CDATA[
	.st0{fill:#737373;}
]]></style><path class="st0" d="M5.329 3.126c-1.076.786-3.335 2.677-3.414 3.003-.103.555.859 4.467 3.021 7.223 1.385-.594 2.706-1.436 4.253-2.709-2.501-2.636-3.798-5.163-3.86-7.517z"/><path class="st0" d="M6.208 2.846c-.023.466.012.648.11 1.105.243-.173.817-.555 1.047-.707-.617-.335-1.007-.39-1.157-.398z"/><path class="st0" d="M6.678 4.925c.594 1.384 1.436 2.706 2.71 4.253 2.633-2.5 5.162-3.798 7.515-3.86-.786-1.076-2.677-3.335-3.003-3.413l-.083-.007c-.774 0-4.485.945-7.139 3.027z"/><path class="st0" d="M16.077 6.307c.175.243.556.817.708 1.046.334-.616.391-1.013.397-1.157-.463-.023-.653.014-1.105.111z"/><path class="st0" d="M18.085 13.871c.103-.555-.858-4.467-3.021-7.223-1.385.594-2.705 1.436-4.253 2.709 2.501 2.636 3.798 5.162 3.86 7.516 1.076-.785 3.336-2.675 3.414-3.002"/><path class="st0" d="M12.635 16.756c.617.334 1.006.391 1.157.398.024-.467-.012-.648-.11-1.106-.243.173-.817.556-1.047.708z"/><path class="st0" d="M3.097 14.682c.786 1.076 2.677 3.336 3.002 3.414l.083.006c.774 0 4.485-.943 7.139-3.025-.594-1.385-1.436-2.707-2.709-4.254-2.634 2.499-5.161 3.796-7.515 3.859z"/><path class="st0" d="M2.817 13.803c.464.023.654-.013 1.105-.109-.173-.243-.554-.816-.708-1.048-.333.618-.388 1.013-.397 1.157z"/></svg>