<svg xmlns="http://www.w3.org/2000/svg" width="20" height="20"><style type="text/css"><![CDATA[
	.st0{fill:#FFFFFF;stroke:#666766;stroke-width:0.75;stroke-miterlimit:10;}
	.st1{fill:#666766;stroke:#666766;stroke-width:0.5;stroke-miterlimit:10;}
	.st2{fill:#FFFFFF;}
]]></style><circle class="st0" cx="9.836" cy="9.479" r="7.073"/><circle class="st1" cx="9.836" cy="9.455" r="5.011"/><path class="st2" d="M9.109 11.414l-.023-.305c-.07-.633.141-1.324.727-2.027.527-.621.82-1.078.82-1.605 0-.598-.375-.996-1.113-1.008-.422 0-.891.141-1.184.363l-.281-.738c.386-.282 1.054-.469 1.675-.469 1.348 0 1.957.832 1.957 1.723 0 .797-.445 1.371-1.008 2.039-.516.609-.703 1.125-.668 1.723l.012.305h-.914zm-.257 1.641c0-.434.293-.738.703-.738s.691.305.691.738c0 .41-.27.727-.703.727-.41-.001-.691-.317-.691-.727z"/></svg>