<?xml version="1.0" encoding="utf-8"?>
<!-- Generator: Adobe Illustrator 16.0.0, SVG Export Plug-In . SVG Version: 6.00 Build 0)  -->
<!DOCTYPE svg PUBLIC "-//W3C//DTD SVG 1.1//EN" "http://www.w3.org/Graphics/SVG/1.1/DTD/svg11.dtd">
<svg version="1.1" id="Layer_1" xmlns="http://www.w3.org/2000/svg" xmlns:xlink="http://www.w3.org/1999/xlink" x="0px" y="0px"
	 width="180px" height="60px" viewBox="0 0 180 60" style="enable-background:new 0 0 180 60;" xml:space="preserve">
<style type="text/css">
<![CDATA[
	.st0{opacity:0.4;fill:none;stroke:#69B3E3;stroke-width:2;}
	.st1{fill:#FFFFFF;}
	.st2{fill:#69B3E3;}
]]>
</style>
<g>
	<path class="st1" d="M27.739,34.153c-0.309-1.011-0.477-2.08-0.477-3.192c0-6.055,4.911-10.965,10.966-10.965
		c4.365,0,8.122,2.557,9.887,6.248c1.69-1.767,4.065-2.873,6.703-2.873c5.124,0,9.277,4.154,9.277,9.278
		c0,0.503-0.051,0.993-0.127,1.475h1.884c4.464,0,8.083,3.62,8.083,8.085s-3.619,8.084-8.083,8.084H28.317
		c-4.464,0-8.083-3.619-8.083-8.084C20.233,37.939,23.544,34.451,27.739,34.153z"/>
	<path class="st1" d="M150.055,25.909c0.146-0.73,0.226-1.485,0.226-2.259c0-6.252-5.069-11.322-11.322-11.322
		c-2.295,0-4.426,0.687-6.208,1.859c-1.874-7.341-8.512-12.776-16.436-12.776c-7.758,0-14.286,5.205-16.316,12.309
		c-6.967,1.041-12.318,7-12.387,14.239c-2.939,2.109-4.863,5.548-4.863,9.441c0,6.422,5.207,11.627,11.627,11.627h53.984
		c6.422,0,11.626-5.205,11.626-11.627C159.985,31.555,155.67,26.731,150.055,25.909z"/>
	<path class="st0" d="M33.831,30.895c-0.309-1.011-0.477-2.082-0.477-3.192c0-6.056,4.911-10.966,10.966-10.966
		c4.365,0,8.121,2.557,9.887,6.247c1.689-1.767,4.064-2.872,6.702-2.872c5.124,0,9.277,4.153,9.277,9.277
		c0,0.503-0.051,0.993-0.127,1.476h1.885c4.464,0,8.083,3.619,8.083,8.084s-3.619,8.084-8.083,8.084H34.409
		c-4.464,0-8.083-3.619-8.083-8.084C26.325,34.68,29.636,31.192,33.831,30.895z"/>
	<path class="st0" d="M149.599,30.253c0.146-0.73,0.226-1.486,0.226-2.26c0-6.252-5.069-11.322-11.322-11.322
		c-2.295,0-4.425,0.687-6.208,1.859c-1.874-7.342-8.511-12.776-16.436-12.776c-7.757,0-14.286,5.205-16.316,12.308
		c-6.966,1.041-12.318,7-12.386,14.239c-2.939,2.109-4.863,5.548-4.863,9.441c0,6.422,5.207,11.627,11.627,11.627h53.984
		c6.421,0,11.626-5.205,11.626-11.627C159.53,35.898,155.214,31.075,149.599,30.253z"/>
	<path class="st2" d="M121.002,30.746c0.52-1.704,0.803-3.51,0.803-5.383c0-10.214-8.282-18.493-18.492-18.493
		c-7.363,0-13.699,4.311-16.676,10.535c-2.85-2.979-6.855-4.844-11.304-4.844c-8.641,0-15.646,7.005-15.646,15.647
		c0,0.85,0.086,1.675,0.216,2.488h-3.179c-7.531,0-13.634,6.104-13.634,13.635s6.103,13.634,13.634,13.634h63.303
		c7.53,0,13.635-6.104,13.635-13.634C133.66,37.131,128.074,31.25,121.002,30.746z"/>
	<g>
		<path class="st1" d="M77.583,33.223h-5.335v4.794h5.222v2.139h-5.222v6.708h-3.174V31.105h8.509V33.223z"/>
		<path class="st1" d="M83.57,46.863h-3.174V31.105h3.174V46.863z"/>
		<path class="st1" d="M95.838,33.223h-5.334v4.794h5.222v2.139h-5.222v6.708h-3.174V31.105h8.509V33.223z"/>
		<path class="st1" d="M113.553,38.827c0,2.371-0.713,4.337-2.138,5.897c-1.456,1.605-3.362,2.408-5.718,2.408
			c-2.341,0-4.247-0.795-5.718-2.385c-1.426-1.547-2.138-3.504-2.138-5.876c0-2.356,0.75-4.284,2.25-5.785
			c1.501-1.501,3.422-2.251,5.764-2.251c2.19,0,4.021,0.762,5.492,2.285S113.553,36.547,113.553,38.827z M110.154,39.029
			c0-1.875-0.402-3.338-1.204-4.389c-0.804-1.051-1.91-1.576-3.32-1.576c-1.472,0-2.604,0.646-3.399,1.936
			c-0.676,1.096-1.013,2.424-1.013,3.984c0,1.606,0.337,2.941,1.013,4.008c0.811,1.275,1.966,1.912,3.467,1.912
			c1.365,0,2.449-0.528,3.253-1.586C109.752,42.26,110.154,40.83,110.154,39.029z"/>
	</g>
</g>
<g>
</g>
<g>
</g>
<g>
</g>
<g>
</g>
<g>
</g>
<g>
</g>
</svg>
