<?xml version="1.0" encoding="UTF-8" standalone="no"?>
<!-- Generator: Adobe Illustrator 16.0.0, SVG Export Plug-In . SVG Version: 6.00 Build 0)  -->

<svg
   xmlns:dc="http://purl.org/dc/elements/1.1/"
   xmlns:cc="http://creativecommons.org/ns#"
   xmlns:rdf="http://www.w3.org/1999/02/22-rdf-syntax-ns#"
   xmlns:svg="http://www.w3.org/2000/svg"
   xmlns="http://www.w3.org/2000/svg"
   xmlns:sodipodi="http://sodipodi.sourceforge.net/DTD/sodipodi-0.dtd"
   xmlns:inkscape="http://www.inkscape.org/namespaces/inkscape"
   version="1.1"
   id="Layer_1"
   x="0px"
   y="0px"
   width="180px"
   height="60px"
   viewBox="0 0 180 60"
   style="enable-background:new 0 0 180 60;"
   xml:space="preserve"
   inkscape:version="0.48.2 r9819"
   sodipodi:docname="fifo.svg"><metadata
   id="metadata37"><rdf:RDF><cc:Work
       rdf:about=""><dc:format>image/svg+xml</dc:format><dc:type
         rdf:resource="http://purl.org/dc/dcmitype/StillImage" /></cc:Work></rdf:RDF></metadata><defs
   id="defs35" /><sodipodi:namedview
   pagecolor="#ffffff"
   bordercolor="#666666"
   borderopacity="1"
   objecttolerance="10"
   gridtolerance="10"
   guidetolerance="10"
   inkscape:pageopacity="0"
   inkscape:pageshadow="2"
   inkscape:window-width="1087"
   inkscape:window-height="757"
   id="namedview33"
   showgrid="false"
   inkscape:zoom="2.5666667"
   inkscape:cx="13.051948"
   inkscape:cy="30"
   inkscape:window-x="100"
   inkscape:window-y="25"
   inkscape:window-maximized="0"
   inkscape:current-layer="Layer_1" />
<style
   type="text/css"
   id="style3">

	.st0{opacity:0.4;fill:none;stroke:#69B3E3;stroke-width:2;}
	.st1{fill:#FFFFFF;}
	.st2{fill:#69B3E3;}

</style>
<path
   class="st0"
   d="M33.831,30.895c-0.309-1.011-0.477-2.082-0.477-3.192c0-6.056,4.911-10.966,10.966-10.966  c4.365,0,8.121,2.557,9.887,6.247c1.689-1.767,4.064-2.872,6.702-2.872c5.124,0,9.277,4.153,9.277,9.277  c0,0.503-0.051,0.993-0.127,1.476h1.885c4.464,0,8.083,3.619,8.083,8.084s-3.619,8.084-8.083,8.084H34.409  c-4.464,0-8.083-3.619-8.083-8.084C26.325,34.68,29.636,31.192,33.831,30.895z"
   id="path5" />
<path
   class="st0"
   d="M149.599,30.253c0.146-0.73,0.226-1.486,0.226-2.26c0-6.252-5.069-11.322-11.322-11.322  c-2.295,0-4.425,0.687-6.208,1.859c-1.874-7.342-8.511-12.776-16.436-12.776c-7.757,0-14.286,5.205-16.316,12.308  c-6.966,1.041-12.318,7-12.386,14.239c-2.939,2.109-4.863,5.548-4.863,9.441c0,6.422,5.207,11.627,11.627,11.627h53.984  c6.421,0,11.626-5.205,11.626-11.627C159.53,35.898,155.214,31.075,149.599,30.253z"
   id="path7" />
<path
   class="st2"
   d="M121.002,30.746c0.52-1.704,0.803-3.51,0.803-5.383c0-10.214-8.282-18.493-18.492-18.493  c-7.363,0-13.699,4.311-16.676,10.535c-2.85-2.979-6.855-4.844-11.304-4.844c-8.641,0-15.646,7.005-15.646,15.647  c0,0.85,0.086,1.675,0.216,2.488h-3.179c-7.531,0-13.634,6.104-13.634,13.635s6.103,13.634,13.634,13.634h63.303  c7.53,0,13.635-6.104,13.635-13.634C133.66,37.131,128.074,31.25,121.002,30.746z"
   id="path9" />
<g
   id="g11">
	<path
   class="st1"
   d="M77.583,33.223h-5.335v4.794h5.222v2.139h-5.222v6.708h-3.174V31.105h8.509V33.223z"
   id="path13" />
	<path
   class="st1"
   d="M83.57,46.863h-3.174V31.105h3.174V46.863z"
   id="path15" />
	<path
   class="st1"
   d="M95.838,33.223h-5.334v4.794h5.222v2.139h-5.222v6.708h-3.174V31.105h8.509V33.223z"
   id="path17" />
	<path
   class="st1"
   d="M113.553,38.827c0,2.371-0.713,4.337-2.138,5.897c-1.456,1.605-3.362,2.408-5.718,2.408   c-2.341,0-4.247-0.795-5.718-2.385c-1.426-1.547-2.138-3.504-2.138-5.876c0-2.356,0.75-4.284,2.25-5.785   c1.501-1.501,3.422-2.251,5.764-2.251c2.19,0,4.021,0.762,5.492,2.285S113.553,36.547,113.553,38.827z M110.154,39.029   c0-1.875-0.402-3.338-1.204-4.389c-0.804-1.051-1.91-1.576-3.32-1.576c-1.472,0-2.604,0.646-3.399,1.936   c-0.676,1.096-1.013,2.424-1.013,3.984c0,1.606,0.337,2.941,1.013,4.008c0.811,1.275,1.966,1.912,3.467,1.912   c1.365,0,2.449-0.528,3.253-1.586C109.752,42.26,110.154,40.83,110.154,39.029z"
   id="path19" />
</g>
<g
   id="g21">
</g>
<g
   id="g23">
</g>
<g
   id="g25">
</g>
<g
   id="g27">
</g>
<g
   id="g29">
</g>
<g
   id="g31">
</g>
<path
   style="fill:#ffffff;fill-opacity:1;stroke-width:2.6;stroke-miterlimit:4;stroke-dasharray:none"
   d="m 32.220779,45.48166 c -2.564414,-0.755102 -4.570429,-3.655318 -4.570429,-6.607743 0,-3.550892 2.271939,-6.093616 6.057475,-6.779445 1.369248,-0.248067 1.468852,-0.352499 1.257367,-1.318304 -1.34557,-6.144906 1.862398,-11.439513 7.624484,-12.583869 4.029753,-0.800313 8.332471,1.243817 10.297116,4.891942 0.409723,0.760811 0.878889,1.383291 1.042592,1.383291 0.163701,0 1.092124,-0.606443 2.06316,-1.347651 1.578797,-1.205123 4.219657,-2.154433 4.688658,-1.685433 0.09753,0.09754 -0.08407,1.039035 -0.40356,2.092223 -0.319493,1.053188 -0.582793,3.098329 -0.585113,4.544758 l -0.0042,2.62987 -2.907463,0 c -3.842419,0 -6.591989,1.039666 -9.303503,3.517837 -2.568413,2.347384 -4.165229,5.65065 -4.450696,9.206961 l -0.198269,2.470007 -4.719385,-0.03514 c -2.595662,-0.01933 -5.24536,-0.190014 -5.888217,-0.379306 z"
   id="path3016"
   inkscape:connector-curvature="0" /><path
   style="fill:#ffffff;fill-opacity:1;opacity:1"
   d="m 131.96918,51.448052 c 1.66034,-3.953864 1.81305,-4.655201 1.67538,-7.694805 -0.17267,-3.812447 -1.37238,-6.633651 -3.85506,-9.065419 -1.91863,-1.879292 -4.90844,-3.50435 -7.08978,-3.853532 -1.45752,-0.233314 -1.46674,-0.246293 -1.16883,-1.645122 0.52657,-2.472484 0.20747,-7.487392 -0.62887,-9.883483 -1.5498,-4.440082 -4.91992,-8.345211 -9.00592,-10.4355939 l -1.75324,-0.8969567 1.94805,-0.5115223 c 7.87916,-2.0689204 16.07671,2.5711029 18.76281,10.6202299 0.34968,1.047841 0.67328,1.953451 0.71911,2.012467 0.0458,0.05902 1.02123,-0.379296 2.16754,-0.974026 2.71422,-1.408184 6.71605,-1.509951 9.13487,-0.232301 3.64727,1.926535 5.63427,5.303202 5.64043,9.585279 0.003,1.776714 0.16332,2.687834 0.49082,2.781735 4.39575,1.260353 7.09918,3.34972 8.47633,6.550979 1.73718,4.038195 0.46948,9.087183 -2.99957,11.946674 -2.59402,2.138205 -3.98823,2.377215 -13.86707,2.377215 -8.35725,0 -8.91485,-0.04397 -8.647,-0.681818 z"
   id="path3018"
   inkscape:connector-curvature="0" /></svg>